<svg id="Capa_1" enable-background="new 0 0 501 501" height="512" viewBox="0 0 501 501" width="512" xmlns="http://www.w3.org/2000/svg"><g><path d="m495.5 256c0 135.31-109.69 245-245 245s-245-109.69-245-245 109.69-245 245-245 245 109.69 245 245z" fill="#f4aa39"/><path d="m493.821 227.168c-14.269 121.723-117.766 216.168-243.321 216.168s-229.052-94.445-243.321-216.168c14.269-121.723 117.766-216.168 243.321-216.168s229.052 94.445 243.321 216.168z" fill="#f5c02c"/><path d="m250.5 0c102.173 0 185 82.827 185 185s-82.827 185-185 185-185-82.827-185-185 82.827-185 185-185z" fill="#4f66cf"/><path d="m89.845 276.795c-15.49-27.051-24.345-58.389-24.345-91.795 0-102.173 82.827-185 185-185 33.406 0 64.744 8.855 91.795 24.345-135.468 8.622-243.828 116.982-252.45 252.45z" fill="#2740af"/><path d="m285.249 271.521c5.369-45.931-6.437-87.127-33.302-116.769-52.34 47.277-92.465 107.834-115.009 176.302-5.74-4.469-11.209-9.269-16.379-14.371 2.965-8.456 6.202-16.838 9.709-25.137 21.643-51.215 52.632-97.198 92.105-136.672 4.816-4.816 9.729-9.505 14.736-14.067-24.171-19.31-55.032-29.459-89.399-29.459-6.986 0-14.119.419-21.368 1.267-17.213 2.012-34.351 6.339-51.032 12.787 2.902-8.533 6.409-16.785 10.471-24.706 12.608-3.773 25.398-6.445 38.238-7.945 49.741-5.813 94.823 6.487 128.404 34.747 15.402-12.763 31.615-24.388 48.579-34.834-23.56-27.98-42.209-59.201-55.507-92.596 1.664-.045 3.332-.068 5.005-.068 5.798 0 11.533.268 17.194.789 12.9 29.779 30.2 57.226 51.075 81.516 13.028-7.181 26.462-13.699 40.276-19.537 7.334-3.099 14.732-5.987 22.189-8.663 5.14 5.134 9.98 10.57 14.49 16.277-21.829 7.365-42.841 16.521-62.86 27.292 28.886 29.52 63.425 53.488 101.846 70.132.522 5.661.789 11.397.789 17.194 0 1.673-.023 3.341-.067 5.003-42.359-16.867-81.219-42.344-114.405-75.531-2.126-2.126-4.219-4.275-6.281-6.446-16.689 10.107-32.604 21.37-47.632 33.678 30.563 33.936 44.031 80.531 37.999 132.139-3.821 32.695-15.228 65.068-33.106 94.92-7.055.816-14.232 1.237-21.507 1.237-.99 0-1.977-.009-2.963-.024 20.65-30.537 33.726-64.349 37.712-98.455z" fill="#172a7d"/><path d="m301.994 495.579 4.318-73.07c-4.075-21.382-7.32-46.421-9.226-73.269-2.955-41.629-2.11-79.408 1.633-106.246 2.243-16.083 24.796-17.684 29.289-2.08 5.172 17.962 9.713 41.273 13.004 67.67l51.831-88.553 12.078-60.392c.883-4.414 4.606-7.694 9.095-8.013 13.284-.946 25.607 6.961 30.284 19.431l15.833 42.223c4.062 10.832 4.242 22.736.51 33.686l-45.339 133.034-.12-.039 2.926 54.734c-31.882 29.917-71.776 51.4-116.116 60.884zm-129.001-254.664c-5.172 17.962-9.713 41.273-13.004 67.67l-51.831-88.553-12.078-60.392c-.883-4.414-4.606-7.694-9.095-8.013-13.284-.946-25.607 6.961-30.284 19.431l-15.834 42.222c-4.062 10.832-4.242 22.736-.51 33.686l45.339 133.034.12-.039-2.926 54.734c31.884 29.917 71.777 51.4 116.117 60.884l-4.318-73.07c4.075-21.382 7.32-46.421 9.226-73.269 2.955-41.629 2.11-79.408-1.633-106.246-2.243-16.082-24.796-17.683-29.289-2.079z" fill="#a95947"/><path d="m438.438 228.095-23.095 83.239c-2.05 10.844-16.583 5.015-15.537-2.304 2.007-14.041 9.904-52.952 14.813-76.7.468-2.264-2.592-3.443-3.765-1.451l-48.26 81.948c-5.6 9.51-19.97 6.923-21.963-3.932-.019-.103-.038-.206-.057-.309l52.268-88.553 12.078-60.392c.877-4.387 4.562-7.673 9.023-8.008.454-.034.907-.056 1.359-.069.242-3.931 1.416-8.065 4.752-9.813 14.749-7.726 18.25 6.097 18.478 7.628l3.338 43.424c.913 11.874-.248 23.816-3.432 35.292zm-115.322 14.899c.375-2.687 1.317-4.969 2.647-6.835-7.226-10.279-25.063-7.375-27.045 6.835-3.743 26.838-4.588 64.617-1.633 106.246 1.906 26.848 5.151 51.887 9.226 73.269l-4.318 73.07c8.434-1.804 16.706-4.042 24.794-6.689l3.922-66.38c-4.075-21.382-7.32-46.421-9.226-73.269-2.955-41.63-2.11-79.409 1.633-106.247zm-256.759 3.972c-3.189-9.356-3.521-19.411-1.015-28.896.757-1.782 1.242-2.903 1.242-2.903l1.101-4.064 15.017-40.045c2.353-6.275 6.644-11.396 12.019-14.813-1.663-2.621-4.5-4.388-7.735-4.618-1.531-.109-3.05-.1-4.545.02-.23-3.956-1.397-8.137-4.757-9.896-14.749-7.726-18.25 6.097-18.478 7.628l-3.712 24.903-14.627 38.998c-4.062 10.832-4.242 22.736-.51 33.686l45.339 133.034.12-.039-2.926 54.734c7.836 7.353 16.155 14.195 24.905 20.476l4.021-75.21-.12.039zm106.636-6.051c-5.172 17.962-9.713 41.273-13.004 67.67 0 0-.74 17.165 8.078 18.949 7.714 1.561 17.252-21.46 21.111-50.267 2.689-20.07 1.953-37.904-1.379-47.229-6.266-.175-12.638 3.348-14.806 10.877z" fill="#7d402d"/><path d="m325.87 306.619-9.929 1.187c-2.742.328-5.23-1.629-5.558-4.371s1.629-5.23 4.371-5.558l9.929-1.187c2.742-.328 5.23 1.629 5.558 4.372.328 2.741-1.629 5.23-4.371 5.557zm-12.302-18.672 9.929-1.187c2.742-.328 4.699-2.816 4.371-5.558s-2.816-4.699-5.558-4.372l-9.929 1.187c-2.742.328-4.699 2.816-4.371 5.558.327 2.742 2.816 4.699 5.558 4.372zm-127.322 9.929-9.929-1.187c-2.742-.328-5.23 1.629-5.558 4.372-.328 2.742 1.63 5.23 4.371 5.558l9.929 1.187c2.742.328 5.23-1.629 5.558-4.371.328-2.743-1.629-5.231-4.371-5.559zm2.373-19.858-9.929-1.187c-2.742-.328-5.23 1.63-5.558 4.372s1.629 5.23 4.371 5.558l9.929 1.187c2.742.327 5.23-1.63 5.558-4.372.328-2.743-1.629-5.231-4.371-5.558z" fill="#533022"/><path d="m317.52 257.63-7.237.224c-4.049.125-7.221-3.47-6.59-7.472.202-1.281.413-2.527.631-3.737 1.81-10.022 16.027-10.461 18.452-.569.293 1.194.58 2.425.86 3.691.878 3.955-2.066 7.738-6.116 7.863zm-120.845-10.985c-1.81-10.022-16.027-10.461-18.452-.569-.293 1.194-.58 2.425-.86 3.691-.877 3.955 2.067 7.738 6.117 7.863l7.237.224c4.049.125 7.221-3.47 6.59-7.472-.203-1.281-.413-2.527-.632-3.737z" fill="#e1a595"/></g></svg>